<?xml version="1.0" encoding="utf-8"?>
<!-- Generator: Adobe Illustrator 23.0.1, SVG Export Plug-In . SVG Version: 6.00 Build 0)  -->
<svg version="1.1" id="Layer_1" xmlns="http://www.w3.org/2000/svg" xmlns:xlink="http://www.w3.org/1999/xlink" x="0px" y="0px"
	 viewBox="0 0 553 607" style="enable-background:new 0 0 553 607;" xml:space="preserve">
<style type="text/css">
	.st0{opacity:0.42;}
	.st1{fill:#000000;}
</style>
<g class="st0">
	<path class="st1" d="M267.06,380c4.65-0.91,6.82-7.1,3.47-10.45l-59.81-59.81c-3.35-3.36-9.55-1.18-10.45,3.48
		c-0.01,0.04,0.2-0.13,0.19-0.09c-0.38,1.94,0.45,3.73,1.85,5.13l59.71,59.71c1.4,1.4,3.19,2.22,5.14,1.84
		C267.19,379.8,267.02,380.01,267.06,380z"/>
	<path class="st1" d="M322.05,348.31c0.56-0.56,1.75-1.46,2.34-2.08c1.8-1.87,2.36-5.12,0.53-6.96l-83.95-83.95
		c-1.84-1.84-5.39-1.58-7.26,0.23c-0.62,0.59-1.81,1.48-2.38,2.04c-0.01,0.01-0.02,0.02-0.03,0.03c-1.85,1.85-0.66,4.3,1.19,6.15
		l83.99,83.99c1.85,1.85,3.69,2.44,5.55,0.59C322.03,348.33,322.04,348.32,322.05,348.31z"/>
	<path class="st1" d="M356.35,288.15c0.01-0.04,0.23-0.3,0.24-0.35c0.3-1.9-0.08-4.04-1.44-5.4l-57.28-57.28
		c-1.36-1.36-3.71-1.53-5.61-1.22c-0.04,0.01,0.13-0.2,0.09-0.2c-4.76,0.77-6.41,6.42-3,9.84l57.39,57.39
		C350.15,294.33,355.58,292.91,356.35,288.15z"/>
	<path class="st1" d="M118.1,427.6l35.16,35.16c3.59,3.59,9.26,1.73,9.68-3.33c0-0.05,0.23-0.32,0.23-0.37
		c0.14-1.72-0.29-3.62-1.51-4.84l-35.02-35.02c-1.2-1.2-3.28-1.41-4.96-1.3c-0.05,0,0.11-0.21,0.06-0.21
		C116.63,418.04,114.49,423.98,118.1,427.6z"/>
	<path class="st1" d="M52.13,439.51c-3.14,2.07-3.16,6.05-0.51,8.71l80.32,80.32c2.65,2.65,6.61,2.63,8.69-0.48
		c0.02-0.04,0.27-0.29,0.29-0.33c1.57-2.35,1.46-5.69-0.53-7.68l-80.28-80.28c-1.99-1.99-5.31-2.09-7.65-0.55
		C52.42,439.24,52.17,439.48,52.13,439.51z"/>
	<path class="st1" d="M392.79,141.2c0,0.05,0.21-0.11,0.2-0.06c-0.15,1.73,0.71,3.22,1.94,4.45l40.23,40.23
		c1.25,1.25,2.55,2.33,4.31,2.15c0.05-0.01,0.32-0.23,0.37-0.23c4.99-0.53,7.4-6.77,3.85-10.32l-40.37-40.37
		C399.76,133.47,393.25,136.17,392.79,141.2z"/>
	<path class="st1" d="M416.45,73.73l0.14-0.11c-1.67,2.34-1.19,5.34,0.85,7.38l81.68,81.68c2.05,2.05,4.85,2.76,7.2,1.07
		c0.03-0.03,0.29-0.27,0.32-0.29c2.97-2.14,3.55-6.64,0.96-9.23l-81.68-81.68C423.33,69.95,418.59,70.74,416.45,73.73z"/>
	<path class="st1" d="M362.2,223.96c4.64,43.68,4.06,87.86-35.7,127.61c-39.8,39.79-84.22,40.56-128.16,36.1
		c0.53,4.73,1.11,9.48,1.69,14.26c0.62,5.12,1.25,10.28,1.83,15.46c51.57,4.59,104.12,5.5,150.35-40.73
		c46.18-46.18,44.78-98.11,39.64-149.04c-5.22-0.61-10.43-1.27-15.6-1.92C371.54,225.1,366.86,224.51,362.2,223.96z"/>
	<path class="st1" d="M387.81,187.79c-3.58-42.93-2.06-86.17,30.1-125.84c5.04-6.21,4.68-15.19-0.98-20.84
		c-6.44-6.44-17.07-6.01-22.86,1.02c-15.97,19.4-24.27,38-32.03,61.33c-8.82,26.51-7.54,54.26-4.5,81.63
		c3.52,0.31,7.03,0.64,10.54,0.97C374.71,186.66,381.28,187.27,387.81,187.79z"/>
	<path class="st1" d="M34.98,444.88c39.78-32.27,83.49-34.18,126.93-31.06c-0.44-6.61-0.97-13.28-1.52-19.99
		c-0.29-3.53-0.57-7.07-0.84-10.61c-27.52-2.93-55.41-4.15-81.97,4.69c-22.93,7.63-42.21,16.32-62.46,33.11
		c-7.01,5.82-7.46,16.43-1.01,22.88l0,0C19.78,449.56,28.76,449.92,34.98,444.88z"/>
	<path class="st1" d="M518.15,162.2c-47.62,38.83-99.71,33.98-150.22,29.28c-54.35-5.06-110.55-10.3-160.86,40.01
		c-50.34,50.34-45.75,107.2-41.3,162.19c4.13,51.07,8.38,103.75-30.54,151.45c-5.06,6.2-4.7,15.19,0.96,20.84l0,0
		c6.44,6.44,17.06,5.98,22.86-1.04c16.94-20.5,25.85-40.27,33.28-62.59c10.76-32.34,6.59-66.65,2.56-99.83
		c-6.14-50.55-12.49-102.81,33.62-148.92c46.06-46.06,97.99-39.49,148.22-33.13c33.11,4.19,67.34,8.52,99.74-2.26
		c23.37-7.77,42-16.1,61.51-32.19c7.02-5.79,7.45-16.41,1.01-22.84v0C533.34,157.51,524.35,157.15,518.15,162.2z"/>
</g>
</svg>
