<?xml version="1.0" encoding="utf-8"?>
<!-- Generator: Adobe Illustrator 23.0.1, SVG Export Plug-In . SVG Version: 6.00 Build 0)  -->
<svg version="1.1" id="Layer_1" xmlns="http://www.w3.org/2000/svg" xmlns:xlink="http://www.w3.org/1999/xlink" x="0px" y="0px"
	 viewBox="0 0 553 607" style="enable-background:new 0 0 553 607;" xml:space="preserve">
<style type="text/css">
	.st0{fill:#000000;}
</style>
<path class="st0" d="M476.05,364.2c-2.88-1.99-6.09-3.31-9.41-4.02c-14.91-3.16-29.21-8.2-41.65-16.08l-16.87-10.69
	c-3.92-2.48-6.6-8.27-8.31-13.61c-1.68-5.28,3.05-10.53,9.27-10.04c5.58,0.44,11.05,2.17,15.25,5.43c2.98,2.32,7.04,3.64,11.55,3.27
	c6.01-0.49,11.24-4.24,12.96-9.33c2.81-8.32-3.72-16.36-13.04-17.15c-3.26-0.28-6.37,0.38-9,1.71c-4.36,2.21-9.28,3.42-14.28,3
	l-2.2-0.19c-4.89-0.42-7.94-4.95-5.87-8.87c7.56-14.25,20.23-26.2,36.52-33.75l3.57-1.65c8.15-3.77,17.22-5.47,26.42-5.94
	c2.35-0.12,4.72-0.67,6.94-1.7c9.31-4.31,12.19-15.12,5.23-22.72c-4.28-4.67-11.6-6.61-18.11-4.83c-3.08,0.84-5.64,2.32-7.6,4.19
	c-9.81,9.36-22.03,16.52-34.84,22.45l-14.16,6.55c-7.3,3.38-15.56,3.79-22.97,1.64c-6.63-1.93-9.15-8.8-5.03-13.75
	c3.06-3.68,6.87-6.94,11.51-8.99c2.76-1.22,5.13-3.24,6.63-6c2.57-4.73,1.62-10.18-2.45-14.02c-6.47-6.09-17.23-5.28-22.53,1.09
	c-1.38,1.66-2.23,3.52-2.59,5.42c-0.85,4.53-3.17,8.74-6.25,12.45v0c-2.23,2.69-6.9,2.41-8.69-0.52
	c-4.98-8.16-12.15-22.69-7.6-31.45h0c2.08-4,5.73-7.26,10.36-8.92c5.86-2.1,10.73-6.34,12.96-12.18c3.09-8.1-1.45-18.92-9.79-23.32
	c-11.86-6.26-26.91-1.95-32.48,8.78c-1.25,2.4-1.9,4.9-2.03,7.38c-0.68,13.72-3.5,27.3-10,39.79l-1.23,2.37
	c-2.02,3.89-6.41,6.41-11.27,6.48l-0.24,0c-6.3,0.09-11.72-3.89-12.72-9.35l-1.71-9.3c-2.56-13.91-0.94-28.01,3.15-41.63
	c0.93-3.1,1.12-6.44,0.4-9.82c-2.34-11.1-15.61-19.65-28.38-18.27c-14.55,1.57-24.56,13.4-22.26,25.98
	c1.74,9.51,18.56,30.12,20.64,41.43l0.22,1.19c0.37,2.04,0.34,4.61,0.1,7.26c-1.5,16.53-21.55,27.23-38.41,19.74
	c-0.63-0.28-1.25-0.58-1.86-0.9l-43.02-22.56c-13.88-7.28-26.36-16.32-38.33-25.86c-1.38-1.1-3-2.03-4.85-2.72
	c-7.05-2.64-15.51-0.67-20.15,4.69c-6.27,7.24-3.85,17.41,4.79,21.94c1.38,0.72,2.83,1.26,4.31,1.61
	c16.54,3.92,32.74,8.88,47.45,16.59l2.89,1.51c14.13,7.41,24.4,18.87,29.44,31.87c5.15,13.29,0.81,28.18-11.36,37.29
	c-2.13,1.59-6.3,2.47-7.37,2.33c-5.47-0.71-8.27-2.7-12.22-6.1c-2.85-2.45-6.82-3.95-11.35-3.78c-6.03,0.22-11.47,3.74-13.48,8.73
	c-3.29,8.18,2.76,16.5,12.02,17.71c3.23,0.42,6.38-0.09,9.08-1.3c4.48-2.01,9.46-3,14.44-2.36l2.19,0.29
	c4.86,0.63,7.64,5.3,5.34,9.12c-8.38,13.9-21.73,25.27-38.44,32.07l-3.66,1.49c-8.36,3.4-17.51,4.7-26.73,4.75
	c-2.36,0.01-4.75,0.46-7.03,1.39c-9.55,3.89-13.06,14.55-6.54,22.45c4,4.85,11.2,7.12,17.81,5.63c3.12-0.7,5.76-2.06,7.83-3.84
	c10.34-8.91,22.97-15.51,36.11-20.87l14.51-5.91c7.49-3.05,15.76-3.09,23.03-0.61c6.51,2.22,8.63,9.2,4.23,13.96
	c-3.27,3.54-7.27,6.62-12.02,8.46c-2.83,1.09-5.31,3-6.97,5.69c-2.84,4.61-2.21,10.1,1.63,14.11c6.1,6.37,16.9,6.05,22.56-0.08
	c1.48-1.6,2.44-3.41,2.9-5.29c1.11-4.48,3.67-8.59,6.97-12.15v0c2.39-2.58,7.03-2.1,8.64,0.91c4.5,8.37,10.82,23.21,5.76,31.75h0
	c-2.31,3.9-6.15,6.99-10.87,8.45c-5.97,1.84-11.08,5.85-13.65,11.58c-3.55,7.95,0.35,18.96,8.42,23.73
	c11.48,6.78,26.76,3.15,32.95-7.31c1.38-2.34,2.19-4.81,2.45-7.28c1.48-13.67,5.09-27.1,12.3-39.29l1.37-2.31
	c2.24-3.79,6.77-6.11,11.64-5.96l0.24,0.01c6.3,0.19,11.48,4.41,12.16,9.91l1.17,9.37c1.75,14-0.68,28.01-5.56,41.42
	c-1.11,3.07-1.49,6.4-0.97,9.81c1.7,11.18,14.46,20.3,27.28,19.5c14.62-0.92,25.3-12.28,23.74-24.95
	c-1.18-9.58-16.78-30.91-18.2-42.3l-0.15-1.2c-0.91-7.32,0.41-14.54,3.58-21.09l0.17-0.14c1.17-1,4.7-4.28,8.89-8.19
	c3.72-3.47,10.05-3.38,13.64,0.2c3.17,3.16,4.65,7.26,4.68,11.47c0.03,4.39,1.94,8.8,5.81,12.21c6.73,5.94,17.68,6.83,25.51,2.02
	c9.92-6.1,11.38-18.19,3.61-25.94c-3.23-3.23-7.52-5.15-12.01-5.74c-5.5-0.72-10.42-3.39-14.09-7.05c-2.94-2.93-1.34-7.56,2.95-8.58
	c14.32-3.41,29.85-1.22,42.17,6.59c10.88,6.89,19.21,16.24,25.47,26.65c1.71,2.85,4.17,5.4,7.35,7.41
	c11.29,7.16,27.16,4.71,34.96-5.56C488.05,384.32,485.59,370.77,476.05,364.2z M250.86,351.57c-6.51,0-11.78-4.63-11.78-10.34
	c0-5.71,5.27-10.34,11.78-10.34c6.51,0,11.78,4.63,11.78,10.34C262.64,346.94,257.37,351.57,250.86,351.57z M250.86,308.34
	c-6.51,0-11.78-4.63-11.78-10.34c0-5.71,5.27-10.34,11.78-10.34c6.51,0,11.78,4.63,11.78,10.34
	C262.64,303.72,257.37,308.34,250.86,308.34z M261.57,265.12c-5.32,0-9.64-3.79-9.64-8.46c0-4.67,4.32-8.46,9.64-8.46
	s9.64,3.79,9.64,8.46C271.21,261.33,266.9,265.12,261.57,265.12z M305.48,359.09c-7.1,0-12.85-5.05-12.85-11.28
	c0-6.23,5.75-11.28,12.85-11.28c7.1,0,12.85,5.05,12.85,11.28C318.33,354.04,312.57,359.09,305.48,359.09z M305.48,293.31
	c-10.65,0-19.28-7.57-19.28-16.91c0-9.34,8.63-16.91,19.28-16.91c10.65,0,19.28,7.57,19.28,16.91
	C324.75,285.74,316.12,293.31,305.48,293.31z M346.17,253.84c3.55,0,6.43,2.52,6.43,5.64c0,3.11-2.88,5.64-6.43,5.64
	c-3.55,0-6.43-2.52-6.43-5.64C339.75,256.37,342.62,253.84,346.17,253.84z M352.6,338.41c-13.01,0-23.56-9.26-23.56-20.67
	c0-11.42,10.55-20.67,23.56-20.67c13.01,0,23.56,9.26,23.56,20.67C376.15,329.16,365.61,338.41,352.6,338.41z"/>
</svg>
